<?xml version="1.0" encoding="utf-8"?>
<!-- Generator: Adobe Illustrator 18.1.1, SVG Export Plug-In . SVG Version: 6.00 Build 0)  -->
<svg version="1.1" xmlns="http://www.w3.org/2000/svg" xmlns:xlink="http://www.w3.org/1999/xlink" x="0px" y="0px"
	 viewBox="0 0 272.7 272.7" enable-background="new 0 0 272.7 272.7" xml:space="preserve">
<g id="Layer_2">
</g>
<g id="Layer_1">
	<g>
		<path fill="#FCFAFC" d="M111,78.8c2.1,0,3.8-0.9,4.9-2.2c1.4-1.7,1.9-3.5,1.9-11c0-7.5-0.5-9.4-1.9-11.1c-1.1-1.3-2.8-2.1-4.9-2.1
			s-3.8,0.8-5,2.1c-1.4,1.7-1.9,3.5-1.9,11.1c0,7.5,0.4,9.3,1.9,11C107.2,77.9,108.9,78.8,111,78.8z"/>
		<path fill="#FCFAFC" d="M136.3,0C61,0,0,61,0,136.3s61,136.3,136.3,136.3s136.3-61,136.3-136.3S211.6,0,136.3,0z M158.3,46h25.9
			v6.9h-18.2v9.2h15.5v6.9h-15.5v9.6h18.2v6.9h-25.9V46z M133,46l7.9,25.6l7.9-25.6h8l-13,39.3H138l-13-39.3H133z M100.4,49.8
			c2.7-2.7,6-4.1,10.6-4.1s7.8,1.5,10.5,4.1c3.9,3.9,4,8.3,4,15.9c0,7.5-0.1,11.9-4,15.9c-2.7,2.7-6,4.1-10.5,4.1s-7.9-1.5-10.6-4.1
			c-3.9-3.9-4-8.3-4-15.9C96.4,58.2,96.5,53.7,100.4,49.8z M64,85.3h-7.7V46h7.6l10.3,21.3L84.3,46h7.6v39.3h-7.7V62.4l-7.5,14.9
			h-5.2L64,62.4V85.3z M202.6,98.2c-11.8,0.6-17.2,4.4-23.3,14.5L144.4,170v40.8c4.4,9.9,14.1,10.9,23.7,11.3v4.8h-67v-4.8
			c9.7-0.4,21.2-2.1,24.4-8.4v-41.8l-36.1-59.5c-6.1-9.9-11.8-13.7-23.3-14.3v-4.6h58v4.6c-11.1,0.6-14.5,2.9-17.7,5.5l33.2,56.3
			l32.8-55.9c-3.4-2.5-6.5-5.3-17.7-5.9v-4.6h47.9V98.2z M199.2,85.7c-6,0-10.5-1.3-14.4-5.2l5-5c2.5,2.5,5.9,3.3,9.4,3.3
			c4.6,0,7-1.8,7-4.9c0-1.3-0.4-2.4-1.2-3.3c-0.8-0.7-1.5-1-3.5-1.3l-4.7-0.7c-3.5-0.5-5.9-1.5-7.6-3.3c-1.9-1.8-2.8-4.4-2.8-7.7
			c0-7,5.2-11.9,13.7-11.9c5.4,0,9.3,1.3,12.7,4.6l-4.9,4.8c-2.4-2.4-5.5-2.7-8.1-2.7c-4.1,0-6,2.3-6,5c0,1,0.3,2,1.1,2.8
			c0.8,0.7,1.9,1.3,3.6,1.5l4.7,0.7c3.6,0.5,5.8,1.4,7.5,3.1c2.1,1.9,3,4.8,3,8.3C213.8,81.4,207.5,85.7,199.2,85.7z"/>
	</g>
</g>
</svg>
